<mxfile host="app.diagrams.net" modified="2024-09-08T13:21:36.703Z" agent="Mozilla/5.0 (Windows NT 10.0; Win64; x64) AppleWebKit/537.36 (KHTML, like Gecko) Chrome/128.0.0.0 Safari/537.36 Edg/128.0.0.0" etag="N2CUwRzt2vXY60fTruGX" version="24.6.1" type="device">
  <diagram name="Page-1" id="o_-uiN_R9JncoQVDERNJ">
    <mxGraphModel dx="4190" dy="1890" grid="1" gridSize="10" guides="1" tooltips="1" connect="1" arrows="1" fold="1" page="1" pageScale="1" pageWidth="850" pageHeight="1100" math="0" shadow="0">
      <root>
        <mxCell id="0" />
        <mxCell id="1" parent="0" />
        <mxCell id="ZrAl2NCaOBbT2TPyVSfQ-33" style="edgeStyle=orthogonalEdgeStyle;rounded=0;orthogonalLoop=1;jettySize=auto;html=1;entryX=0;entryY=0.5;entryDx=0;entryDy=0;" edge="1" parent="1" source="ZrAl2NCaOBbT2TPyVSfQ-1" target="ZrAl2NCaOBbT2TPyVSfQ-7">
          <mxGeometry relative="1" as="geometry" />
        </mxCell>
        <mxCell id="ZrAl2NCaOBbT2TPyVSfQ-1" value="driver" style="rounded=0;whiteSpace=wrap;html=1;" vertex="1" parent="1">
          <mxGeometry x="190" y="150" width="120" height="60" as="geometry" />
        </mxCell>
        <mxCell id="ZrAl2NCaOBbT2TPyVSfQ-36" value="accepted ride goes to the ride manger" style="edgeStyle=orthogonalEdgeStyle;rounded=0;orthogonalLoop=1;jettySize=auto;html=1;entryX=0.5;entryY=0;entryDx=0;entryDy=0;" edge="1" parent="1" target="ZrAl2NCaOBbT2TPyVSfQ-37">
          <mxGeometry relative="1" as="geometry">
            <mxPoint x="100" y="300" as="targetPoint" />
            <mxPoint x="740" y="120" as="sourcePoint" />
          </mxGeometry>
        </mxCell>
        <mxCell id="ZrAl2NCaOBbT2TPyVSfQ-3" value="Rider" style="whiteSpace=wrap;html=1;" vertex="1" parent="1">
          <mxGeometry x="650" y="120" width="120" height="90" as="geometry" />
        </mxCell>
        <mxCell id="ZrAl2NCaOBbT2TPyVSfQ-5" value="1.cheacks the inbox&lt;div&gt;2.accept the ride&lt;/div&gt;&lt;div&gt;3.cancle the ride&lt;/div&gt;&lt;div&gt;4.end the ride&lt;/div&gt;" style="text;html=1;align=center;verticalAlign=middle;whiteSpace=wrap;rounded=0;" vertex="1" parent="1">
          <mxGeometry x="185" y="225" width="130" height="80" as="geometry" />
        </mxCell>
        <mxCell id="ZrAl2NCaOBbT2TPyVSfQ-6" value="1.request for ride&lt;div&gt;2.accept the ride&lt;/div&gt;&lt;div&gt;3.cancel the ride&lt;/div&gt;&lt;div&gt;4.ratings to driver&lt;/div&gt;" style="text;html=1;align=center;verticalAlign=middle;whiteSpace=wrap;rounded=0;" vertex="1" parent="1">
          <mxGeometry x="640" y="230" width="160" height="70" as="geometry" />
        </mxCell>
        <mxCell id="ZrAl2NCaOBbT2TPyVSfQ-21" style="edgeStyle=orthogonalEdgeStyle;rounded=0;orthogonalLoop=1;jettySize=auto;html=1;" edge="1" parent="1" source="ZrAl2NCaOBbT2TPyVSfQ-7" target="ZrAl2NCaOBbT2TPyVSfQ-11">
          <mxGeometry relative="1" as="geometry" />
        </mxCell>
        <mxCell id="ZrAl2NCaOBbT2TPyVSfQ-31" value="send the notification&amp;nbsp;" style="edgeStyle=orthogonalEdgeStyle;rounded=0;orthogonalLoop=1;jettySize=auto;html=1;entryX=1;entryY=0.5;entryDx=0;entryDy=0;" edge="1" parent="1" source="ZrAl2NCaOBbT2TPyVSfQ-7" target="ZrAl2NCaOBbT2TPyVSfQ-1">
          <mxGeometry relative="1" as="geometry" />
        </mxCell>
        <mxCell id="ZrAl2NCaOBbT2TPyVSfQ-34" value="detail of ride" style="edgeStyle=orthogonalEdgeStyle;rounded=0;orthogonalLoop=1;jettySize=auto;html=1;entryX=0;entryY=0.75;entryDx=0;entryDy=0;" edge="1" parent="1" source="ZrAl2NCaOBbT2TPyVSfQ-7" target="ZrAl2NCaOBbT2TPyVSfQ-3">
          <mxGeometry relative="1" as="geometry" />
        </mxCell>
        <mxCell id="ZrAl2NCaOBbT2TPyVSfQ-7" value="ride Manager" style="whiteSpace=wrap;html=1;" vertex="1" parent="1">
          <mxGeometry x="460" y="280" width="100" height="60" as="geometry" />
        </mxCell>
        <mxCell id="ZrAl2NCaOBbT2TPyVSfQ-10" value="request for the ride" style="edgeStyle=orthogonalEdgeStyle;rounded=0;orthogonalLoop=1;jettySize=auto;html=1;entryX=0.683;entryY=0.02;entryDx=0;entryDy=0;entryPerimeter=0;" edge="1" parent="1" source="ZrAl2NCaOBbT2TPyVSfQ-3" target="ZrAl2NCaOBbT2TPyVSfQ-7">
          <mxGeometry relative="1" as="geometry" />
        </mxCell>
        <mxCell id="ZrAl2NCaOBbT2TPyVSfQ-15" style="edgeStyle=orthogonalEdgeStyle;rounded=0;orthogonalLoop=1;jettySize=auto;html=1;" edge="1" parent="1" source="ZrAl2NCaOBbT2TPyVSfQ-11" target="ZrAl2NCaOBbT2TPyVSfQ-13">
          <mxGeometry relative="1" as="geometry" />
        </mxCell>
        <mxCell id="ZrAl2NCaOBbT2TPyVSfQ-28" value="driver get payment notification" style="edgeStyle=orthogonalEdgeStyle;rounded=0;orthogonalLoop=1;jettySize=auto;html=1;entryX=0;entryY=0.25;entryDx=0;entryDy=0;" edge="1" parent="1" source="ZrAl2NCaOBbT2TPyVSfQ-11" target="ZrAl2NCaOBbT2TPyVSfQ-23">
          <mxGeometry relative="1" as="geometry" />
        </mxCell>
        <mxCell id="ZrAl2NCaOBbT2TPyVSfQ-11" value="payment configuration&amp;nbsp;" style="whiteSpace=wrap;html=1;" vertex="1" parent="1">
          <mxGeometry x="280" y="360" width="150" height="60" as="geometry" />
        </mxCell>
        <mxCell id="ZrAl2NCaOBbT2TPyVSfQ-13" value="distanc&lt;span style=&quot;color: rgba(0, 0, 0, 0); font-family: monospace; font-size: 0px; text-align: start; text-wrap: nowrap;&quot;&gt;%3CmxGraphModel%3E%3Croot%3E%3CmxCell%20id%3D%220%22%2F%3E%3CmxCell%20id%3D%221%22%20parent%3D%220%22%2F%3E%3CmxCell%20id%3D%222%22%20value%3D%22ride%20Manager%22%20style%3D%22whiteSpace%3Dwrap%3Bhtml%3D1%3B%22%20vertex%3D%221%22%20parent%3D%221%22%3E%3CmxGeometry%20x%3D%22440%22%20y%3D%22280%22%20width%3D%22120%22%20height%3D%2260%22%20as%3D%22geometry%22%2F%3E%3C%2FmxCell%3E%3C%2Froot%3E%3C%2FmxGraphModel%3E&lt;/span&gt;e based" style="whiteSpace=wrap;html=1;" vertex="1" parent="1">
          <mxGeometry x="340" y="450" width="120" height="60" as="geometry" />
        </mxCell>
        <mxCell id="ZrAl2NCaOBbT2TPyVSfQ-14" value="timing based" style="whiteSpace=wrap;html=1;" vertex="1" parent="1">
          <mxGeometry x="340" y="530" width="120" height="60" as="geometry" />
        </mxCell>
        <mxCell id="ZrAl2NCaOBbT2TPyVSfQ-16" style="edgeStyle=orthogonalEdgeStyle;rounded=0;orthogonalLoop=1;jettySize=auto;html=1;entryX=0.59;entryY=0.027;entryDx=0;entryDy=0;entryPerimeter=0;" edge="1" parent="1">
          <mxGeometry relative="1" as="geometry">
            <mxPoint x="290" y="424.19" as="sourcePoint" />
            <mxPoint x="390.79999999999995" y="535.81" as="targetPoint" />
            <Array as="points">
              <mxPoint x="290" y="540" />
              <mxPoint x="391" y="540" />
            </Array>
          </mxGeometry>
        </mxCell>
        <mxCell id="ZrAl2NCaOBbT2TPyVSfQ-17" value="Text" style="edgeLabel;html=1;align=center;verticalAlign=middle;resizable=0;points=[];" vertex="1" connectable="0" parent="ZrAl2NCaOBbT2TPyVSfQ-16">
          <mxGeometry x="0.4293" y="2" relative="1" as="geometry">
            <mxPoint as="offset" />
          </mxGeometry>
        </mxCell>
        <mxCell id="ZrAl2NCaOBbT2TPyVSfQ-26" style="edgeStyle=orthogonalEdgeStyle;rounded=0;orthogonalLoop=1;jettySize=auto;html=1;entryX=0;entryY=0.75;entryDx=0;entryDy=0;" edge="1" parent="1" source="ZrAl2NCaOBbT2TPyVSfQ-23" target="ZrAl2NCaOBbT2TPyVSfQ-24">
          <mxGeometry relative="1" as="geometry" />
        </mxCell>
        <mxCell id="ZrAl2NCaOBbT2TPyVSfQ-27" style="edgeStyle=orthogonalEdgeStyle;rounded=0;orthogonalLoop=1;jettySize=auto;html=1;entryX=0;entryY=0.75;entryDx=0;entryDy=0;" edge="1" parent="1" source="ZrAl2NCaOBbT2TPyVSfQ-23" target="ZrAl2NCaOBbT2TPyVSfQ-25">
          <mxGeometry relative="1" as="geometry" />
        </mxCell>
        <mxCell id="ZrAl2NCaOBbT2TPyVSfQ-29" style="edgeStyle=orthogonalEdgeStyle;rounded=0;orthogonalLoop=1;jettySize=auto;html=1;" edge="1" parent="1" source="ZrAl2NCaOBbT2TPyVSfQ-23">
          <mxGeometry relative="1" as="geometry">
            <mxPoint x="820" y="410" as="targetPoint" />
          </mxGeometry>
        </mxCell>
        <mxCell id="ZrAl2NCaOBbT2TPyVSfQ-30" value="driver inbox notificatio" style="edgeLabel;html=1;align=center;verticalAlign=middle;resizable=0;points=[];" vertex="1" connectable="0" parent="ZrAl2NCaOBbT2TPyVSfQ-29">
          <mxGeometry x="0.2643" y="-3" relative="1" as="geometry">
            <mxPoint x="52" y="-3" as="offset" />
          </mxGeometry>
        </mxCell>
        <mxCell id="ZrAl2NCaOBbT2TPyVSfQ-23" value="driver matching&amp;nbsp;" style="whiteSpace=wrap;html=1;" vertex="1" parent="1">
          <mxGeometry x="640" y="380" width="120" height="60" as="geometry" />
        </mxCell>
        <mxCell id="ZrAl2NCaOBbT2TPyVSfQ-24" value="distanc&lt;span style=&quot;color: rgba(0, 0, 0, 0); font-family: monospace; font-size: 0px; text-align: start; text-wrap: nowrap;&quot;&gt;%3CmxGraphModel%3E%3Croot%3E%3CmxCell%20id%3D%220%22%2F%3E%3CmxCell%20id%3D%221%22%20parent%3D%220%22%2F%3E%3CmxCell%20id%3D%222%22%20value%3D%22ride%20Manager%22%20style%3D%22whiteSpace%3Dwrap%3Bhtml%3D1%3B%22%20vertex%3D%221%22%20parent%3D%221%22%3E%3CmxGeometry%20x%3D%22440%22%20y%3D%22280%22%20width%3D%22120%22%20height%3D%2260%22%20as%3D%22geometry%22%2F%3E%3C%2FmxCell%3E%3C%2Froot%3E%3C%2FmxGraphModel%3E&lt;/span&gt;e based" style="whiteSpace=wrap;html=1;" vertex="1" parent="1">
          <mxGeometry x="660" y="470" width="120" height="60" as="geometry" />
        </mxCell>
        <mxCell id="ZrAl2NCaOBbT2TPyVSfQ-25" value="rating based&amp;nbsp;" style="whiteSpace=wrap;html=1;" vertex="1" parent="1">
          <mxGeometry x="660" y="570" width="120" height="60" as="geometry" />
        </mxCell>
        <mxCell id="ZrAl2NCaOBbT2TPyVSfQ-39" style="edgeStyle=orthogonalEdgeStyle;rounded=0;orthogonalLoop=1;jettySize=auto;html=1;" edge="1" parent="1" source="ZrAl2NCaOBbT2TPyVSfQ-37">
          <mxGeometry relative="1" as="geometry">
            <mxPoint x="100" y="470" as="targetPoint" />
          </mxGeometry>
        </mxCell>
        <mxCell id="ZrAl2NCaOBbT2TPyVSfQ-41" value="" style="edgeStyle=orthogonalEdgeStyle;rounded=0;orthogonalLoop=1;jettySize=auto;html=1;" edge="1" parent="1" source="ZrAl2NCaOBbT2TPyVSfQ-37" target="ZrAl2NCaOBbT2TPyVSfQ-40">
          <mxGeometry relative="1" as="geometry" />
        </mxCell>
        <mxCell id="ZrAl2NCaOBbT2TPyVSfQ-49" style="edgeStyle=orthogonalEdgeStyle;rounded=0;orthogonalLoop=1;jettySize=auto;html=1;" edge="1" parent="1" source="ZrAl2NCaOBbT2TPyVSfQ-37">
          <mxGeometry relative="1" as="geometry">
            <mxPoint x="-160" y="490" as="targetPoint" />
          </mxGeometry>
        </mxCell>
        <mxCell id="ZrAl2NCaOBbT2TPyVSfQ-37" value="Ride manger" style="whiteSpace=wrap;html=1;" vertex="1" parent="1">
          <mxGeometry x="40" y="360" width="120" height="60" as="geometry" />
        </mxCell>
        <mxCell id="ZrAl2NCaOBbT2TPyVSfQ-45" style="edgeStyle=orthogonalEdgeStyle;rounded=0;orthogonalLoop=1;jettySize=auto;html=1;entryX=0.25;entryY=0;entryDx=0;entryDy=0;" edge="1" parent="1" source="ZrAl2NCaOBbT2TPyVSfQ-40" target="ZrAl2NCaOBbT2TPyVSfQ-43">
          <mxGeometry relative="1" as="geometry" />
        </mxCell>
        <mxCell id="ZrAl2NCaOBbT2TPyVSfQ-46" style="edgeStyle=orthogonalEdgeStyle;rounded=0;orthogonalLoop=1;jettySize=auto;html=1;" edge="1" parent="1" source="ZrAl2NCaOBbT2TPyVSfQ-40">
          <mxGeometry relative="1" as="geometry">
            <mxPoint y="720" as="targetPoint" />
          </mxGeometry>
        </mxCell>
        <mxCell id="ZrAl2NCaOBbT2TPyVSfQ-40" value="best route path&amp;nbsp;&lt;span style=&quot;color: rgba(0, 0, 0, 0); font-family: monospace; font-size: 0px; text-align: start; text-wrap: nowrap;&quot;&gt;%3CmxGraphModel%3E%3Croot%3E%3CmxCell%20id%3D%220%22%2F%3E%3CmxCell%20id%3D%221%22%20parent%3D%220%22%2F%3E%3CmxCell%20id%3D%222%22%20value%3D%22Ride%20manger%22%20style%3D%22whiteSpace%3Dwrap%3Bhtml%3D1%3B%22%20vertex%3D%221%22%20parent%3D%221%22%3E%3CmxGeometry%20x%3D%2240%22%20y%3D%22360%22%20width%3D%22120%22%20height%3D%2260%22%20as%3D%22geometry%22%2F%3E%3C%2FmxCell%3E%3C%2Froot%3E%3C%2FmxGraphModel%3E&lt;/span&gt;" style="whiteSpace=wrap;html=1;" vertex="1" parent="1">
          <mxGeometry x="40" y="500" width="120" height="60" as="geometry" />
        </mxCell>
        <mxCell id="ZrAl2NCaOBbT2TPyVSfQ-43" value="distance based&lt;span style=&quot;color: rgba(0, 0, 0, 0); font-family: monospace; font-size: 0px; text-align: start; text-wrap: nowrap;&quot;&gt;%3CmxGraphModel%3E%3Croot%3E%3CmxCell%20id%3D%220%22%2F%3E%3CmxCell%20id%3D%221%22%20parent%3D%220%22%2F%3E%3CmxCell%20id%3D%222%22%20value%3D%22best%20route%20path%26amp%3Bnbsp%3B%26lt%3Bspan%20style%3D%26quot%3Bcolor%3A%20rgba(0%2C%200%2C%200%2C%200)%3B%20font-family%3A%20monospace%3B%20font-size%3A%200px%3B%20text-align%3A%20start%3B%20text-wrap%3A%20nowrap%3B%26quot%3B%26gt%3B%253CmxGraphModel%253E%253Croot%253E%253CmxCell%2520id%253D%25220%2522%252F%253E%253CmxCell%2520id%253D%25221%2522%2520parent%253D%25220%2522%252F%253E%253CmxCell%2520id%253D%25222%2522%2520value%253D%2522Ride%2520manger%2522%2520style%253D%2522whiteSpace%253Dwrap%253Bhtml%253D1%253B%2522%2520vertex%253D%25221%2522%2520parent%253D%25221%2522%253E%253CmxGeometry%2520x%253D%252240%2522%2520y%253D%2522360%2522%2520width%253D%2522120%2522%2520height%253D%252260%2522%2520as%253D%2522geometry%2522%252F%253E%253C%252FmxCell%253E%253C%252Froot%253E%253C%252FmxGraphModel%253E%26lt%3B%2Fspan%26gt%3B%22%20style%3D%22whiteSpace%3Dwrap%3Bhtml%3D1%3B%22%20vertex%3D%221%22%20parent%3D%221%22%3E%3CmxGeometry%20x%3D%2240%22%20y%3D%22500%22%20width%3D%22120%22%20height%3D%2260%22%20as%3D%22geometry%22%2F%3E%3C%2FmxCell%3E%3C%2Froot%3E%3C%2FmxGraphModel%3E&lt;/span&gt;" style="whiteSpace=wrap;html=1;" vertex="1" parent="1">
          <mxGeometry x="70" y="610" width="120" height="50" as="geometry" />
        </mxCell>
        <mxCell id="ZrAl2NCaOBbT2TPyVSfQ-47" style="edgeStyle=orthogonalEdgeStyle;rounded=0;orthogonalLoop=1;jettySize=auto;html=1;" edge="1" parent="1" source="ZrAl2NCaOBbT2TPyVSfQ-44">
          <mxGeometry relative="1" as="geometry">
            <mxPoint y="720" as="targetPoint" />
          </mxGeometry>
        </mxCell>
        <mxCell id="ZrAl2NCaOBbT2TPyVSfQ-44" value="time based&amp;nbsp;" style="whiteSpace=wrap;html=1;" vertex="1" parent="1">
          <mxGeometry x="50" y="700" width="190" height="50" as="geometry" />
        </mxCell>
        <mxCell id="ZrAl2NCaOBbT2TPyVSfQ-54" style="edgeStyle=orthogonalEdgeStyle;rounded=0;orthogonalLoop=1;jettySize=auto;html=1;entryX=0;entryY=0.5;entryDx=0;entryDy=0;" edge="1" parent="1" source="ZrAl2NCaOBbT2TPyVSfQ-50" target="ZrAl2NCaOBbT2TPyVSfQ-51">
          <mxGeometry relative="1" as="geometry" />
        </mxCell>
        <mxCell id="ZrAl2NCaOBbT2TPyVSfQ-55" style="edgeStyle=orthogonalEdgeStyle;rounded=0;orthogonalLoop=1;jettySize=auto;html=1;entryX=1;entryY=0.5;entryDx=0;entryDy=0;" edge="1" parent="1" source="ZrAl2NCaOBbT2TPyVSfQ-50" target="ZrAl2NCaOBbT2TPyVSfQ-52">
          <mxGeometry relative="1" as="geometry">
            <Array as="points">
              <mxPoint x="-70" y="530" />
              <mxPoint x="-70" y="725" />
            </Array>
          </mxGeometry>
        </mxCell>
        <mxCell id="ZrAl2NCaOBbT2TPyVSfQ-50" value="paymernt service&amp;nbsp;" style="whiteSpace=wrap;html=1;" vertex="1" parent="1">
          <mxGeometry x="-250" y="500" width="130" height="60" as="geometry" />
        </mxCell>
        <mxCell id="ZrAl2NCaOBbT2TPyVSfQ-51" value="UPI&lt;span style=&quot;color: rgba(0, 0, 0, 0); font-family: monospace; font-size: 0px; text-align: start; text-wrap: nowrap;&quot;&gt;%3CmxGraphModel%3E%3Croot%3E%3CmxCell%20id%3D%220%22%2F%3E%3CmxCell%20id%3D%221%22%20parent%3D%220%22%2F%3E%3CmxCell%20id%3D%222%22%20value%3D%22paymernt%20service%26amp%3Bnbsp%3B%22%20style%3D%22whiteSpace%3Dwrap%3Bhtml%3D1%3B%22%20vertex%3D%221%22%20parent%3D%221%22%3E%3CmxGeometry%20x%3D%22-240%22%20y%3D%22500%22%20width%3D%22120%22%20height%3D%2260%22%20as%3D%22geometry%22%2F%3E%3C%2FmxCell%3E%3C%2Froot%3E%3C%2FmxGraphModel%3E&lt;/span&gt;" style="whiteSpace=wrap;html=1;" vertex="1" parent="1">
          <mxGeometry x="-240" y="600" width="120" height="60" as="geometry" />
        </mxCell>
        <mxCell id="ZrAl2NCaOBbT2TPyVSfQ-58" style="edgeStyle=orthogonalEdgeStyle;rounded=0;orthogonalLoop=1;jettySize=auto;html=1;" edge="1" parent="1" source="ZrAl2NCaOBbT2TPyVSfQ-52">
          <mxGeometry relative="1" as="geometry">
            <mxPoint x="-470" y="725" as="targetPoint" />
          </mxGeometry>
        </mxCell>
        <mxCell id="ZrAl2NCaOBbT2TPyVSfQ-52" value="CASh" style="whiteSpace=wrap;html=1;" vertex="1" parent="1">
          <mxGeometry x="-250" y="695" width="120" height="60" as="geometry" />
        </mxCell>
        <mxCell id="ZrAl2NCaOBbT2TPyVSfQ-57" style="edgeStyle=orthogonalEdgeStyle;rounded=0;orthogonalLoop=1;jettySize=auto;html=1;entryX=0;entryY=0.25;entryDx=0;entryDy=0;" edge="1" parent="1" target="ZrAl2NCaOBbT2TPyVSfQ-50">
          <mxGeometry relative="1" as="geometry">
            <mxPoint x="-230" y="790" as="sourcePoint" />
            <mxPoint x="-290" y="515" as="targetPoint" />
            <Array as="points">
              <mxPoint x="-230" y="770" />
              <mxPoint x="-310" y="770" />
              <mxPoint x="-310" y="520" />
              <mxPoint x="-290" y="520" />
              <mxPoint x="-290" y="515" />
            </Array>
          </mxGeometry>
        </mxCell>
        <mxCell id="ZrAl2NCaOBbT2TPyVSfQ-53" value="Wallet&amp;nbsp;" style="whiteSpace=wrap;html=1;" vertex="1" parent="1">
          <mxGeometry x="-250" y="790" width="120" height="60" as="geometry" />
        </mxCell>
        <mxCell id="ZrAl2NCaOBbT2TPyVSfQ-60" value="dedcut the money from the driver wallet" style="edgeStyle=orthogonalEdgeStyle;rounded=0;orthogonalLoop=1;jettySize=auto;html=1;entryX=0;entryY=0.5;entryDx=0;entryDy=0;" edge="1" parent="1" target="ZrAl2NCaOBbT2TPyVSfQ-1">
          <mxGeometry relative="1" as="geometry">
            <mxPoint x="160" y="183.91" as="targetPoint" />
            <mxPoint x="-530" y="698.9099999999997" as="sourcePoint" />
            <Array as="points">
              <mxPoint x="-520" y="700" />
              <mxPoint x="-520" y="184" />
              <mxPoint x="190" y="184" />
            </Array>
          </mxGeometry>
        </mxCell>
        <mxCell id="ZrAl2NCaOBbT2TPyVSfQ-59" value="withdrwa amanager" style="whiteSpace=wrap;html=1;" vertex="1" parent="1">
          <mxGeometry x="-590" y="695" width="120" height="60" as="geometry" />
        </mxCell>
      </root>
    </mxGraphModel>
  </diagram>
</mxfile>
